<svg width="264" height="116" viewBox="0 0 264 116" fill="none" xmlns="http://www.w3.org/2000/svg">
<path d="M121.917 75.7187V70.8406H133.221V81.6131C132.306 82.6701 131.256 83.5915 130.072 84.3774C127.434 86.1932 124.38 87.101 120.908 87.101C116.575 87.101 112.928 85.6511 109.968 82.7514C107.035 79.8516 105.568 76.3556 105.568 72.2634C105.568 68.1712 107.035 64.6752 109.968 61.7754C112.928 58.8756 116.575 57.4257 120.908 57.4257C124.218 57.4257 127.192 58.3742 129.83 60.2713C130.96 61.0843 131.956 62.0328 132.817 63.1169L128.78 67.182C128.242 66.4774 127.556 65.7999 126.721 65.1494C124.945 63.7944 123.007 63.1169 120.908 63.1169C118.378 63.1169 116.225 64.0112 114.449 65.7998C112.7 67.5614 111.825 69.7159 111.825 72.2634C111.825 74.8108 112.7 76.9789 114.449 78.7675C116.225 80.5291 118.378 81.4099 120.908 81.4099C122.684 81.4099 124.232 81.044 125.551 80.3123C126.25 79.9329 126.789 79.5535 127.165 79.1741V75.7187H121.917Z" fill="#2C3C65"/>
<path d="M144.158 80.3123C145.127 81.315 146.324 81.8164 147.751 81.8164C149.177 81.8164 150.375 81.315 151.343 80.3123C152.312 79.3096 152.797 78.0494 152.797 76.5317C152.797 75.0141 152.312 73.7539 151.343 72.7512C150.375 71.7485 149.177 71.2471 147.751 71.2471C146.324 71.2471 145.127 71.7485 144.158 72.7512C143.189 73.7539 142.704 75.0141 142.704 76.5317C142.704 78.0494 143.189 79.3096 144.158 80.3123ZM140.323 83.8489C138.277 81.8164 137.255 79.3773 137.255 76.5317C137.255 73.6862 138.277 71.2471 140.323 69.2145C142.368 67.182 144.844 66.1657 147.751 66.1657C150.657 66.1657 153.133 67.182 155.178 69.2145C157.224 71.2471 158.247 73.6862 158.247 76.5317C158.247 79.3773 157.224 81.8164 155.178 83.8489C153.133 85.8815 150.657 86.8978 147.751 86.8978C144.844 86.8978 142.368 85.8815 140.323 83.8489Z" fill="#2C3C65"/>
<path d="M168.534 86.4912V63.7266H160.461V58.0355H182.664V63.7266H174.59V86.4912H168.534Z" fill="#2C3C65"/>
<path d="M189.376 80.3123C190.345 81.315 191.543 81.8164 192.969 81.8164C194.395 81.8164 195.593 81.315 196.562 80.3123C197.531 79.3096 198.015 78.0494 198.015 76.5317C198.015 75.0141 197.531 73.7539 196.562 72.7512C195.593 71.7485 194.395 71.2471 192.969 71.2471C191.543 71.2471 190.345 71.7485 189.376 72.7512C188.407 73.7539 187.923 75.0141 187.923 76.5317C187.923 78.0494 188.407 79.3096 189.376 80.3123ZM185.541 83.8489C183.496 81.8164 182.473 79.3773 182.473 76.5317C182.473 73.6862 183.496 71.2471 185.541 69.2145C187.586 67.182 190.062 66.1657 192.969 66.1657C195.876 66.1657 198.352 67.182 200.397 69.2145C202.442 71.2471 203.465 73.6862 203.465 76.5317C203.465 79.3773 202.442 81.8164 200.397 83.8489C198.352 85.8815 195.876 86.8978 192.969 86.8978C190.062 86.8978 187.586 85.8815 185.541 83.8489Z" fill="#2C3C65"/>
<path d="M208.505 86.4912V58.0355H213.955L223.643 70.2308L233.332 58.0355H238.782V86.4912H232.726V67.7917L223.643 79.1741L214.56 67.7917V86.4912H208.505Z" fill="#2C3C65"/>
<path d="M259.963 79.7838L262.789 83.6457C262.224 84.2148 261.497 84.7568 260.609 85.2717C258.671 86.3558 256.572 86.8978 254.311 86.8978C251.405 86.8978 248.929 85.8815 246.883 83.8489C244.838 81.8164 243.815 79.3773 243.815 76.5317C243.815 73.6862 244.825 71.2471 246.843 69.2145C248.862 67.182 251.284 66.1657 254.11 66.1657C256.828 66.1657 259.156 67.1413 261.093 69.0926C263.031 71.0438 264 73.3881 264 76.1252C264 76.3962 263.96 76.9789 263.879 77.8732L263.798 78.5643H249.467C249.79 79.567 250.382 80.3936 251.243 81.044C252.131 81.6944 253.289 82.0196 254.715 82.0196C256.222 82.0196 257.527 81.6538 258.631 80.9221C259.169 80.5697 259.613 80.1903 259.963 79.7838ZM249.467 74.4992H258.348C258.025 73.5236 257.474 72.7105 256.693 72.0601C255.913 71.3826 254.984 71.0438 253.908 71.0438C252.831 71.0438 251.903 71.3826 251.122 72.0601C250.342 72.7105 249.79 73.5236 249.467 74.4992Z" fill="#2C3C65"/>
<path d="M74.4902 8.02035C74.4902 12.4499 70.9041 16.0407 66.4805 16.0407C62.0569 16.0407 58.4708 12.4499 58.4708 8.02035C58.4708 3.59083 62.0569 0 66.4805 0C70.9041 0 74.4902 3.59083 74.4902 8.02035Z" fill="#777DFF"/>
<path d="M28.1941 8.02035C28.1941 10.2351 26.4011 12.0305 24.1893 12.0305C21.9775 12.0305 20.1844 10.2351 20.1844 8.02035C20.1844 5.80559 21.9775 4.01018 24.1893 4.01018C26.4011 4.01018 28.1941 5.80559 28.1941 8.02035Z" fill="#494DA5"/>
<path d="M10.733 31.3596C10.733 34.3274 8.33033 36.7332 5.3665 36.7332C2.40266 36.7332 0 34.3274 0 31.3596C0 28.3918 2.40266 25.9859 5.3665 25.9859C8.33033 25.9859 10.733 28.3918 10.733 31.3596Z" fill="#5138EE"/>
<path d="M12.1853 63.3104C2.55232 88.6673 8.89203 103.526 13.266 107.785C16.9396 111.094 21.119 113.251 25.5656 114.521C24.6527 102.611 26.0644 78.5351 27.6114 59.1916C27.6765 58.3769 27.7419 57.5705 27.8074 56.7738L27.8228 56.7583C27.8148 56.698 27.8108 56.6323 27.8105 56.5618C28.4901 51.414 28.8349 41.786 29.9149 34.6133C30.9948 27.4406 25.8413 28.3059 24.0541 33.0409C22.267 37.7759 21.8182 37.9535 12.1853 63.3104Z" fill="#3840EE"/>
<path d="M45.4065 115.324C40.7207 116.033 35.9652 116.238 31.3725 115.68C31.8511 110.873 32.5282 105.19 33.1512 103.101C34.738 104.49 40.5902 110.406 45.4065 115.324Z" fill="#3840EE"/>
<path d="M83.4435 99.0512C82.2958 101.125 67.5278 110.468 50.643 114.326C44.6232 105.937 36.9402 93.4827 38.9591 89.1403C40.2903 86.2768 54.1991 85.9286 60.9871 86.1125L62.5116 86.1378C60.9017 87.7326 59.4477 89.1677 58.3769 90.2217C56.7397 92.167 56.1713 95.6474 66.9957 94.007C80.5262 91.9564 83.1792 94.5618 83.4435 99.0512Z" fill="#3840EE"/>
<path fill-rule="evenodd" clip-rule="evenodd" d="M32.2744 56.0576C24.1092 85.7376 59.1917 83.0106 64.7291 80.8541C70.2666 78.6975 70.1792 78.6177 73.8116 74.7955C90.756 57.7965 85.8767 55.141 82.266 57.2859C78.6553 59.4308 78.3523 59.3919 69.9996 65.5669C56.0285 76.4625 54.5079 74.9464 55.494 72.8264C58.0615 67.9869 69.6844 51.5709 76.3324 40.182C82.9805 28.7931 74.8907 23.27 67.4417 34.6133C59.9926 45.9566 47.898 66.0877 45.9493 63.1118C44.0945 60.2793 49.1342 44.7916 54.3135 33.2946C52.7699 36.5858 54.1653 33.5896 54.8196 32.1847L54.8259 32.1712C54.9176 31.9727 55.0093 31.7756 55.1009 31.58C55.1599 31.454 55.0301 31.7327 54.8259 32.1712C54.6551 32.5409 54.4842 32.9156 54.3135 33.2946C54.6629 32.5496 55.163 31.4823 55.8563 30.0014C60.5854 19.9011 51.2086 20.1371 48.0715 26.2295C35.8433 46.5715 35.7233 46.0368 32.2744 56.0576ZM43.803 75.7121C46.1918 75.7121 48.1282 73.7731 48.1282 71.3811C48.1282 68.9892 46.1918 67.0501 43.803 67.0501C41.4142 67.0501 39.4778 68.9892 39.4778 71.3811C39.4778 73.7731 41.4142 75.7121 43.803 75.7121Z" fill="#3840EE"/>
</svg>
