<svg width="21" height="20" viewBox="0 0 21 20" fill="none" xmlns="http://www.w3.org/2000/svg">
<path fill-rule="evenodd" clip-rule="evenodd" d="M10.5 20C4.97715 20 0.5 15.5228 0.5 10C0.5 4.47715 4.97715 0 10.5 0C16.0228 0 20.5 4.47715 20.5 10C20.5 15.5228 16.0228 20 10.5 20ZM10.5 2C6.08172 2 2.5 5.58172 2.5 10C2.5 14.4183 6.08172 18 10.5 18C14.9183 18 18.5 14.4183 18.5 10C18.5 5.58172 14.9183 2 10.5 2ZM10.5005 4.75736C11.0527 4.75736 11.5005 5.20507 11.5005 5.75736V9H14.7426C15.2949 9 15.7426 9.44772 15.7426 10C15.7426 10.5523 15.2949 11 14.7426 11H11.5005V14.2426C11.5005 14.7949 11.0527 15.2426 10.5005 15.2426C9.94817 15.2426 9.50045 14.7949 9.50045 14.2426V11H6.25736C5.70507 11 5.25736 10.5523 5.25736 10C5.25736 9.44771 5.70507 9 6.25736 9H9.50045V5.75736C9.50045 5.20507 9.94817 4.75736 10.5005 4.75736Z" fill="white"/>
</svg>
