<svg width="20" height="18" viewBox="0 0 20 18" fill="none" xmlns="http://www.w3.org/2000/svg">
<path fill-rule="evenodd" clip-rule="evenodd" d="M0 7.70339V7.36846C0 3.29897 3.28324 0 7.33333 0H12.6667C16.7168 0 20 3.29898 20 7.36847C20 11.4186 16.7479 14.7056 12.7244 14.7367L9.41013 17.5118C8.05596 18.6457 6 17.6782 6 15.9069V14.6657C2.60771 14.1781 0 11.2468 0 7.70339ZM8.12976 15.968L11.6888 12.9879C11.8899 12.8196 12.1434 12.7274 12.4051 12.7274H12.6667C15.6122 12.7274 18 10.3281 18 7.36847C18 4.40884 15.6122 2.00958 12.6667 2.00958H7.33333C4.38781 2.00958 2 4.40884 2 7.36846V7.70339C2 10.478 4.23858 12.7274 7 12.7274C7.46779 12.7274 7.86056 13.0501 7.96979 13.4861C7.98952 13.5648 8 13.6472 8 13.7321V15.9069C8 15.9743 8.07823 16.0111 8.12976 15.968Z" fill="#9FA6BA"/>
</svg>
