<svg width="14" height="14" viewBox="0 0 14 14" fill="none" xmlns="http://www.w3.org/2000/svg">
<path fill-rule="evenodd" clip-rule="evenodd" d="M12.3333 6.99992C12.3333 9.94544 9.94544 12.3333 6.99992 12.3333C4.0544 12.3333 1.66659 9.94544 1.66659 6.99992C1.66659 4.0544 4.0544 1.66659 6.99992 1.66659C9.94544 1.66659 12.3333 4.0544 12.3333 6.99992ZM13.6666 6.99992C13.6666 10.6818 10.6818 13.6666 6.99992 13.6666C3.31802 13.6666 0.333252 10.6818 0.333252 6.99992C0.333252 3.31802 3.31802 0.333252 6.99992 0.333252C10.6818 0.333252 13.6666 3.31802 13.6666 6.99992ZM7.66659 3.66659C7.66659 3.2984 7.36811 2.99992 6.99992 2.99992C6.63173 2.99992 6.33325 3.2984 6.33325 3.66659V6.99992C6.33325 7.20976 6.43205 7.40735 6.59992 7.53325L9.26659 9.53325C9.56114 9.75417 9.97901 9.69447 10.1999 9.39992C10.4208 9.10537 10.3611 8.6875 10.0666 8.46659L7.66659 6.66659V3.66659Z" fill="#2C3C65"/>
</svg>
