<svg width="18" height="14" viewBox="0 0 18 14" fill="none" xmlns="http://www.w3.org/2000/svg">
<path fill-rule="evenodd" clip-rule="evenodd" d="M14 6.99992C15.8409 6.99992 17.3333 5.50753 17.3333 3.66659C17.3333 1.82564 15.8409 0.333252 14 0.333252C12.4468 0.333252 11.1417 1.39556 10.7717 2.83325H1.5C1.03976 2.83325 0.666666 3.20635 0.666666 3.66659C0.666666 4.12682 1.03976 4.49992 1.5 4.49992H10.7717C11.1417 5.93761 12.4468 6.99992 14 6.99992ZM12.3333 3.66659C12.3333 4.58706 13.0795 5.33325 14 5.33325C14.9205 5.33325 15.6667 4.58706 15.6667 3.66659C15.6667 2.74611 14.9205 1.99992 14 1.99992C13.0795 1.99992 12.3333 2.74611 12.3333 3.66659ZM0.666666 10.3333C0.666666 8.4923 2.15905 6.99992 4 6.99992C5.5532 6.99992 6.85828 8.06223 7.22832 9.49992H16.5C16.9602 9.49992 17.3333 9.87301 17.3333 10.3333C17.3333 10.7935 16.9602 11.1666 16.5 11.1666H7.22832C6.85828 12.6043 5.5532 13.6666 4 13.6666C2.15905 13.6666 0.666666 12.1742 0.666666 10.3333ZM5.66667 10.3333C5.66667 9.41278 4.92047 8.66659 4 8.66659C3.07953 8.66659 2.33333 9.41278 2.33333 10.3333C2.33333 11.2537 3.07952 11.9999 4 11.9999C4.92047 11.9999 5.66667 11.2537 5.66667 10.3333Z" fill="#6A7592"/>
</svg>
