<svg width="10" height="14" viewBox="0 0 10 14" fill="none" xmlns="http://www.w3.org/2000/svg">
<path fill-rule="evenodd" clip-rule="evenodd" d="M7.86743 6.90343L4.99992 11.6333L2.13241 6.90343C0.74158 4.6093 2.35754 1.64719 4.99992 1.64719C7.6423 1.64719 9.25826 4.6093 7.86743 6.90343ZM1.0383 7.59503C-0.883205 4.42556 1.34933 0.333252 4.99992 0.333252C8.65051 0.333252 10.883 4.42556 8.96154 7.59503L5.42838 13.4229C5.23138 13.7478 4.76846 13.7478 4.57146 13.4229L1.0383 7.59503ZM5.00005 3.6181C4.28938 3.6181 3.71326 4.20637 3.71326 4.93204C3.71326 5.6577 4.28938 6.24597 5.00005 6.24597C5.71072 6.24597 6.28683 5.6577 6.28683 4.93204C6.28683 4.20637 5.71072 3.6181 5.00005 3.6181Z" fill="#2C3C65"/>
</svg>
