<svg width="18" height="20" viewBox="0 0 18 20" fill="none" xmlns="http://www.w3.org/2000/svg">
<path fill-rule="evenodd" clip-rule="evenodd" d="M7.5 17.9967C7.5 19.1031 6.60457 20 5.5 20H3C1.34315 20 0 18.6547 0 16.9951V8.54215C0 7.70022 0.35263 6.89691 0.972046 6.32778L6.9985 0.790549C8.11214 -0.232685 9.81178 -0.266475 10.9651 0.711686L16.9386 5.7781C17.6118 6.34905 18 7.1878 18 8.07133V16.9951C18 18.6547 16.6568 20 15 20H12.5C11.3954 20 10.5 19.1031 10.5 17.9967V13.0252H7.5V17.9967ZM9.67266 2.24051C9.28823 1.91446 8.72168 1.92572 8.35047 2.2668L2.32402 7.80402C2.11754 7.99373 2 8.26151 2 8.54215V16.9951C2 17.5483 2.44772 17.9967 3 17.9967H5.5V12.0236C5.5 11.4704 5.94772 11.0219 6.5 11.0219H11.5C12.0523 11.0219 12.5 11.4704 12.5 12.0236V17.9967H15C15.5523 17.9967 16 17.5483 16 16.9951V8.07133C16 7.77682 15.8706 7.49724 15.6462 7.30692L9.67266 2.24051Z" fill="#3840EE"/>
</svg>
