<svg width="20" height="18" viewBox="0 0 20 18" fill="none" xmlns="http://www.w3.org/2000/svg">
<path fill-rule="evenodd" clip-rule="evenodd" d="M17.697 4.35025C19.0177 4.65843 20 5.82296 20 7.21248V15.0579C20 16.6828 18.6569 18 17 18L3 18C1.34315 18 8.34465e-07 16.6828 7.15256e-07 15.058L8.34465e-07 9.17385L0 7.21248C-1.19209e-07 5.58763 1.34315 4.27043 3 4.27043H3.47642L12.5207 0.261815C14.0305 -0.407366 15.8076 0.250462 16.49 1.73111L16.9533 2.73647L17.5968 4.13281L17.697 4.35025ZM2 10.1545L2 15.058C2 15.5996 2.44772 16.0386 3 16.0386L17 16.0386C17.5523 16.0386 18 15.5996 18 15.0579V10.1545H2ZM18 8.19316H2V7.21248C2 6.67086 2.44771 6.23179 3 6.23179L17 6.23179C17.5523 6.23179 18 6.67086 18 7.21248V8.19316ZM15.4655 4.27043L15.1308 3.54425L14.6675 2.53889C14.44 2.04534 13.8477 1.82606 13.3444 2.04912L8.33265 4.27043L15.4655 4.27043ZM3 13.0966C3 12.555 3.44772 12.1159 4 12.1159H8C8.55229 12.1159 9 12.555 9 13.0966C9 13.6382 8.55229 14.0773 8 14.0773H4C3.44772 14.0773 3 13.6382 3 13.0966Z" fill="#2C3C65"/>
</svg>
