<svg width="16" height="21" viewBox="0 0 16 21" fill="none" xmlns="http://www.w3.org/2000/svg">
<path fill-rule="evenodd" clip-rule="evenodd" d="M8 14.6956C7.21788 14.6956 6.59078 14.7507 6.05574 14.8325C3.85024 15.1694 2 17.5109 2 19.913C2 20.4893 1.55228 20.9565 1 20.9565C0.447715 20.9565 0 20.4893 0 19.913C0 17.2072 1.62494 14.5494 3.9591 13.3564C2.1687 12.0333 1 9.85472 1 7.39126C1 3.35718 4.13401 0.0869141 8 0.0869141C11.866 0.0869141 15 3.35718 15 7.39126C15 9.85472 13.8313 12.0333 12.0409 13.3564C14.3751 14.5494 16 17.2072 16 19.913C16 20.4893 15.5523 20.9565 15 20.9565C14.4477 20.9565 14 20.4893 14 19.913C14 17.5109 12.1498 15.1694 9.94426 14.8325C9.40922 14.7507 8.78212 14.6956 8 14.6956ZM8 12.6087C5.23858 12.6087 3 10.2727 3 7.39126C3 4.50978 5.23858 2.17387 8 2.17387C10.7614 2.17387 13 4.50978 13 7.39126C13 10.2727 10.7614 12.6087 8 12.6087Z" fill="#9FA6BA"/>
</svg>
