<svg width="18" height="18" viewBox="0 0 18 18" fill="none" xmlns="http://www.w3.org/2000/svg">
<path fill-rule="evenodd" clip-rule="evenodd" d="M17.3333 6.91675C17.3333 10.3685 14.5351 13.1667 11.0833 13.1667C9.6403 13.1667 8.31149 12.6777 7.2536 11.8563C7.21376 11.9406 7.15898 12.0196 7.08926 12.0893L2.08926 17.0893C1.76382 17.4148 1.23618 17.4148 0.910746 17.0893C0.585309 16.7639 0.585309 16.2363 0.910746 15.9108L5.91074 10.9108C5.98046 10.8411 6.05946 10.7863 6.14377 10.7465C5.32238 9.68859 4.83333 8.35978 4.83333 6.91675C4.83333 3.46497 7.63155 0.666748 11.0833 0.666748C14.5351 0.666748 17.3333 3.46497 17.3333 6.91675ZM15.6667 6.91675C15.6667 4.38544 13.6146 2.33341 11.0833 2.33341C8.55203 2.33341 6.5 4.38544 6.5 6.91675C6.5 9.44805 8.55203 11.5001 11.0833 11.5001C13.6146 11.5001 15.6667 9.44805 15.6667 6.91675Z" fill="#C9C9C9"/>
</svg>
