<svg width="68" height="72" viewBox="0 0 68 72" fill="none" xmlns="http://www.w3.org/2000/svg">
<path fill-rule="evenodd" clip-rule="evenodd" d="M36.6516 36.9016C35.1872 38.3661 32.8128 38.3661 31.3484 36.9016L20.0984 25.6516C18.6339 24.1872 18.6339 21.8128 20.0984 20.3484C21.5628 18.8839 23.9372 18.8839 25.4016 20.3484L30.25 25.1967V4.25C30.25 2.17893 31.9289 0.5 34 0.5C36.0711 0.5 37.75 2.17893 37.75 4.25V25.1967L42.5984 20.3484C44.0628 18.8839 46.4372 18.8839 47.9016 20.3484C49.3661 21.8128 49.3661 24.1872 47.9016 25.6516L36.6516 36.9016ZM7.75 64.25V45.5H17.9304C18.5112 47.5033 19.5446 49.7364 21.3855 51.7363C24.4469 55.062 28.8145 56.75 34 56.75C39.196 56.75 43.5641 55.0558 46.6279 51.7352C48.4724 49.736 49.5114 47.5031 50.0976 45.5H60.25V64.25H7.75ZM21.2266 38H4C1.92893 38 0.25 39.6789 0.25 41.75V68C0.25 70.0711 1.92893 71.75 4 71.75H64C66.0711 71.75 67.75 70.0711 67.75 68V41.75C67.75 39.6789 66.0711 38 64 38H46.8102C44.9402 38 43.4921 39.7219 43.2672 41.5784C42.8682 44.8721 41.0179 49.25 34 49.25C26.9937 49.25 25.1587 44.8865 24.7713 41.5946C24.5521 39.7318 23.1023 38 21.2266 38Z" fill="#D5DCED"/>
</svg>
